<?xml version="1.0" encoding="utf-8"?>
<!-- Generator: Adobe Illustrator 26.0.1, SVG Export Plug-In . SVG Version: 6.00 Build 0)  -->
<svg version="1.1" id="Layer_1" xmlns="http://www.w3.org/2000/svg" xmlns:xlink="http://www.w3.org/1999/xlink" x="0px" y="0px"
	 viewBox="0 0 126.5 118.1" style="enable-background:new 0 0 126.5 118.1;" xml:space="preserve">
<style type="text/css">
	.st0{fill:#FFFFFF;}
	.st1{fill:#D15400;}
	.st2{fill:#9B3F00;}
</style>
<polyline class="st0" points="63.7,0 126.5,62.8 42.4,62.8 "/>
<polygon class="st0" points="16,118.1 111.3,118.1 111.3,47.6 63.7,0 16,47.6 0,63.7 16,63.7 "/>
<polyline class="st1" points="53.3,108.9 53.3,68.2 74.1,68.2 74.1,108.9 "/>
<rect x="78.1" y="84.2" transform="matrix(-1.836970e-16 1 -1 -1.836970e-16 187.0545 9.598793e-02)" class="st2" width="30.7" height="18.8"/>
<rect x="19.5" y="84.2" transform="matrix(-1.836970e-16 1 -1 -1.836970e-16 128.4044 58.7461)" class="st2" width="30.7" height="18.8"/>
<polygon class="st2" points="53.3,68.2 63.7,24.8 74.1,68.2 "/>
<polygon class="st1" points="25.4,78.3 34.8,45 44.2,78.3 "/>
<polygon class="st1" points="84.1,78.3 93.5,45 102.9,78.3 "/>
</svg>
